<svg height="26" viewBox="0 0 98.26 26" width="98.26" xmlns="http://www.w3.org/2000/svg"><g fill="#004c6f"><path d="m53.1.19-3.23 6.16-.87-6.16h-3.21l-5.85 11.14h3.2l3.21-6.12.9 6.12h3.2l5.85-11.14zm10.81 6.42 1.2-2.27h-5.29l.93-1.77h5.7l1.25-2.38h-9.1l-5.85 11.14h9.25l1.33-2.52h-5.85l1.15-2.2zm21.55-6.61a8.69 8.69 0 0 0 -2.93.44 6.6 6.6 0 0 0 -2.11 1.2 5.67 5.67 0 0 0 -1.34 1.62 2.1 2.1 0 0 0 -.17 2.15 4 4 0 0 0 2.47 1.35c.81.21 1.27.42 1.4.65a.76.76 0 0 1 0 .77 2.16 2.16 0 0 1 -.81.81 2.6 2.6 0 0 1 -1.3.34c-.65 0-1-.22-1.15-.68a2.13 2.13 0 0 1 .21-1.21l-3.34.2a3.37 3.37 0 0 0 -.23 2.78c.33.73 1.43 1.1 3.3 1.1a8.46 8.46 0 0 0 2.89-.47 7.56 7.56 0 0 0 2.36-1.37 6.57 6.57 0 0 0 1.62-2 3.19 3.19 0 0 0 .43-1.66 1.63 1.63 0 0 0 -.76-1.2 8.49 8.49 0 0 0 -2.67-1c-.53-.13-.84-.27-.92-.41a.46.46 0 0 1 0-.48 1.57 1.57 0 0 1 .59-.6 2 2 0 0 1 1-.26 1.07 1.07 0 0 1 1 .35 1.26 1.26 0 0 1 0 1.09l3.3-.19c.47-1.15.47-2 0-2.53a3.71 3.71 0 0 0 -2.84-.79m-10.62 4.82a8.7 8.7 0 0 0 -2.67-1 1.73 1.73 0 0 1 -.93-.41.46.46 0 0 1 0-.48 1.6 1.6 0 0 1 .62-.62 2 2 0 0 1 1-.26 1.07 1.07 0 0 1 .95.35 1.26 1.26 0 0 1 0 1.09l3.3-.19c.47-1.15.47-2 0-2.53a3.71 3.71 0 0 0 -2.78-.77 8.75 8.75 0 0 0 -2.94.44 6.55 6.55 0 0 0 -2.1 1.2 5.71 5.71 0 0 0 -1.35 1.62 2.12 2.12 0 0 0 -.16 2.15 4 4 0 0 0 2.47 1.35c.8.21 1.27.42 1.4.65a.76.76 0 0 1 0 .77 2 2 0 0 1 -.82.8 2.46 2.46 0 0 1 -1.3.35c-.65 0-1-.22-1.14-.68a2.13 2.13 0 0 1 .21-1.21l-3.34.2a3.42 3.42 0 0 0 -.26 2.78c.34.73 1.44 1.1 3.31 1.1a8.46 8.46 0 0 0 2.89-.47 7.56 7.56 0 0 0 2.36-1.37 6.89 6.89 0 0 0 1.62-2 3.19 3.19 0 0 0 .43-1.66 1.63 1.63 0 0 0 -.76-1.23m-55.37-.26 1-1.95h5l1.26-2.39h-8.39l-5.85 11.14h3.41l2.39-4.55h4.26l1.18-2.25zm24.71-4.34h-10.33l-1.44 2.75h3.46l-4.4 8.39h3.4l4.4-8.39h3.46zm-15.44 0-5.85 11.14h3.41l5.85-11.14z"/><path d="m60.69 14.62h-10.32l-1.45 2.75h3.47l-4.41 8.39h3.4l4.4-8.39h3.47z"/><path d="m69.39 14.62-2.04 3.9h-3.71l2.04-3.9h-3.39l-5.85 11.14h3.4l2.36-4.51h3.71l-2.36 4.51h3.41l5.85-11.14z"/><path d="m80.42 21.04 1.19-2.27h-5.28l.93-1.77h5.69l1.25-2.38h-9.1l-5.85 11.14h9.27l1.32-2.53h-5.86l1.15-2.19z"/><path d="m12.71 14.62h-10.33l-1.44 2.75h3.46l-4.4 8.39h3.4l4.4-8.39h3.46z"/><path d="m95.19 16.35a1.54 1.54 0 0 0 -.56-1 5.55 5.55 0 0 0 -3.38-.75h-5l-5.77 11.3h3l2.41-4.29h1.44c.73 0 .69.09.92.26a.71.71 0 0 1 .16.75v.17c-.07.19-.21.53-.44 1s-.38.87-.48 1.16-.11.37-.14.52a2.08 2.08 0 0 0 0 .41h4l.14-.4a.57.57 0 0 1 -.29-.33 1 1 0 0 1 .06-.52q.09-.27.42-1c.21-.5.37-.9.47-1.22a2.11 2.11 0 0 0 .13-.59v-.11a1.36 1.36 0 0 0 0-.29 1.18 1.18 0 0 0 -.59-.65 5.85 5.85 0 0 0 2.23-1.18 4.46 4.46 0 0 0 1.08-1.93 2.9 2.9 0 0 0 .19-1.31zm-3.89 2a2 2 0 0 1 -.88 1.21 3.37 3.37 0 0 1 -1.77.38h-1.76l1.36-2.65h1.58a2.48 2.48 0 0 1 1.33.24c.21.16.26.47.14.82z"/><path d="m47.85 17 1.25-2.38h-9.1l-5.84 11.14h9.26l1.32-2.53h-5.86l1.15-2.19h5.29l1.19-2.27h-5.28l.93-1.77z"/><path d="m35.33 19.83-5.07.06-1.48 2h2.16a6.89 6.89 0 0 1 -1.08 1 5.06 5.06 0 0 1 -.7.43 3.33 3.33 0 0 1 -1.65.51 2.21 2.21 0 0 1 -1-.21 1.09 1.09 0 0 1 -.47-.48 2.22 2.22 0 0 1 .28-1.91c1.11-2.23 3.54-4.36 5.38-4.46.51 0 .81.16.79.94 0 .16 0 .35-.06.56h.57 3.19a3.12 3.12 0 0 0 .28-2 1.89 1.89 0 0 0 -.38-.73c-1-1.15-2.74-1.08-4-1a11.46 11.46 0 0 0 -6.71 3.41c-1.25 1.22-4.35 4.54-3.16 6.84a2.06 2.06 0 0 0 .42.55 3.44 3.44 0 0 0 2.45.72 8.78 8.78 0 0 0 4.32-1.23l-.39.95h2.29l3.35-4.91z"/><path d="m22.56 15.92c-.47-1-1.62-1.49-3.45-1.49a8.86 8.86 0 0 0 -5 1.52 11.16 11.16 0 0 0 -3.73 4.25 6.58 6.58 0 0 0 -.95 3.25 2.28 2.28 0 0 0 1 1.9 5 5 0 0 0 2.76.6 8.5 8.5 0 0 0 3.42-.7 9.85 9.85 0 0 0 2.89-1.94 12.25 12.25 0 0 0 2.33-3.21q1.42-2.68.73-4.18zm-4.09 4.14a7.51 7.51 0 0 1 -2 2.59 3.43 3.43 0 0 1 -2.07.72c-.71 0-1.14-.24-1.3-.74a3.73 3.73 0 0 1 .66-2.42 7 7 0 0 1 1.9-2.44 3.43 3.43 0 0 1 2-.74c.72 0 1.16.25 1.32.73a3.29 3.29 0 0 1 -.51 2.3z"/><path d="m97.16 14.62a1.08 1.08 0 1 0 1.1 1.07 1.09 1.09 0 0 0 -1.1-1.07zm0 1.9a.83.83 0 0 1 0-1.65.83.83 0 0 1 0 1.65z"/><path d="m97.61 16a.32.32 0 0 0 -.19-.27.28.28 0 0 0 .22-.24.24.24 0 0 0 -.11-.22.6.6 0 0 0 -.38-.08 2 2 0 0 0 -.43 0v1h.28v-.39h.11a.17.17 0 0 1 .19.16.72.72 0 0 0 .08.23h.3zm-.5-.34h-.11v-.28h.12c.13 0 .2.05.2.14s-.08.12-.21.12z"/></g></svg>